REM DIRINDEX 1\6,1\2\7,1\2\8,1\2\9,1\3\10,1\3\11,1\4\12,1\4\13,1\4\14,1\5\15,1\5\16,1\5\17
REM DIRNAME cjc040,folder01,folder02,folder03,folder04,folder05,folder06,folder07,folder08,folder09,folder10,folder11,folder12,folder13,folder14,folder15,folder16
TITLE ""
FILE "P2Q_j_1296-1309.mp3" MP3
  TRACK 01 AUDIO
    TITLE "6:cjc040_0632"
    INDEX 01 00:00:00
  TRACK 02 AUDIO
    TITLE "0:"
    INDEX 01 00:04:17
  TRACK 03 AUDIO
    TITLE "12:cjc040_0633"
    INDEX 01 00:05:30
  TRACK 04 AUDIO
    TITLE "0:"
    INDEX 01 00:07:29
  TRACK 05 AUDIO
    TITLE "13:cjc040_0634"
    INDEX 01 00:08:15
  TRACK 06 AUDIO
    TITLE "0:"
    INDEX 01 00:09:24
  TRACK 07 AUDIO
    TITLE "14:cjc040_0635"
    INDEX 01 00:10:02
  TRACK 08 AUDIO
    TITLE "0:"
    INDEX 01 00:15:64
  TRACK 09 AUDIO
    TITLE "12:cjc040_0636"
    INDEX 01 00:16:44
  TRACK 10 AUDIO
    TITLE "0:"
    INDEX 01 00:18:05
  TRACK 11 AUDIO
    TITLE "13:cjc040_0637"
    INDEX 01 00:18:60
  TRACK 12 AUDIO
    TITLE "0:"
    INDEX 01 00:22:32
  TRACK 13 AUDIO
    TITLE "14:cjc040_0638"
    INDEX 01 00:23:08
  TRACK 14 AUDIO
    TITLE "0:"
    INDEX 01 00:27:69
  TRACK 15 AUDIO
    TITLE "12:cjc040_0639"
    INDEX 01 00:28:51
  TRACK 16 AUDIO
    TITLE "0:"
    INDEX 01 00:30:40
  TRACK 17 AUDIO
    TITLE "13:cjc040_0640"
    INDEX 01 00:31:24
  TRACK 18 AUDIO
    TITLE "0:"
    INDEX 01 00:33:03
  TRACK 19 AUDIO
    TITLE "14:cjc040_0641"
    INDEX 01 00:33:60
  TRACK 20 AUDIO
    TITLE "0:"
    INDEX 01 00:38:37
  TRACK 21 AUDIO
    TITLE "12:cjc040_0642"
    INDEX 01 00:39:23
  TRACK 22 AUDIO
    TITLE "0:"
    INDEX 01 00:40:54
  TRACK 23 AUDIO
    TITLE "13:cjc040_0643"
    INDEX 01 00:41:40
  TRACK 24 AUDIO
    TITLE "0:"
    INDEX 01 00:44:20
  TRACK 25 AUDIO
    TITLE "14:cjc040_0644"
    INDEX 01 00:44:71
  TRACK 26 AUDIO
    TITLE "0:"
    INDEX 01 00:50:52
  TRACK 27 AUDIO
    TITLE "12:cjc040_0645"
    INDEX 01 00:51:26
  TRACK 28 AUDIO
    TITLE "0:"
    INDEX 01 00:53:00
  TRACK 29 AUDIO
    TITLE "13:cjc040_0646"
    INDEX 01 00:53:58
  TRACK 30 AUDIO
    TITLE "0:"
    INDEX 01 00:57:52
  TRACK 31 AUDIO
    TITLE "14:cjc040_0647"
    INDEX 01 00:58:24
  TRACK 32 AUDIO
    TITLE "0:"
    INDEX 01 01:02:44
  TRACK 33 AUDIO
    TITLE "12:cjc040_0648"
    INDEX 01 01:03:29
  TRACK 34 AUDIO
    TITLE "0:"
    INDEX 01 01:04:58
  TRACK 35 AUDIO
    TITLE "13:cjc040_0649"
    INDEX 01 01:05:38
  TRACK 36 AUDIO
    TITLE "0:"
    INDEX 01 01:06:61
  TRACK 37 AUDIO
    TITLE "14:cjc040_0650"
    INDEX 01 01:07:37
  TRACK 38 AUDIO
    TITLE "0:"
    INDEX 01 01:14:08
  TRACK 39 AUDIO
    TITLE "12:cjc040_0651"
    INDEX 01 01:14:55
  TRACK 40 AUDIO
    TITLE "0:"
    INDEX 01 01:16:11
  TRACK 41 AUDIO
    TITLE "13:cjc040_0652"
    INDEX 01 01:16:65
  TRACK 42 AUDIO
    TITLE "0:"
    INDEX 01 01:20:42
  TRACK 43 AUDIO
    TITLE "14:cjc040_0653"
    INDEX 01 01:21:25
  TRACK 44 AUDIO
    TITLE "0:"
    INDEX 01 01:26:11
  TRACK 45 AUDIO
    TITLE "12:cjc040_0654"
    INDEX 01 01:26:70
  TRACK 46 AUDIO
    TITLE "0:"
    INDEX 01 01:28:45
  TRACK 47 AUDIO
    TITLE "13:cjc040_0655"
    INDEX 01 01:29:21
  TRACK 48 AUDIO
    TITLE "0:"
    INDEX 01 01:31:49
  TRACK 49 AUDIO
    TITLE "14:cjc040_0656"
    INDEX 01 01:32:25
  TRACK 50 AUDIO
    TITLE "0:"
    INDEX 01 01:36:58
  TRACK 51 AUDIO
    TITLE "12:cjc040_0657"
    INDEX 01 01:37:36
  TRACK 52 AUDIO
    TITLE "0:"
    INDEX 01 01:39:17
  TRACK 53 AUDIO
    TITLE "13:cjc040_0658"
    INDEX 01 01:39:74
  TRACK 54 AUDIO
    TITLE "0:"
    INDEX 01 01:42:22
  TRACK 55 AUDIO
    TITLE "14:cjc040_0659"
    INDEX 01 01:43:02
  TRACK 56 AUDIO
    TITLE "0:"
    INDEX 01 01:47:70
  TRACK 57 AUDIO
    TITLE "12:cjc040_0660"
    INDEX 01 01:48:48
  TRACK 58 AUDIO
    TITLE "0:"
    INDEX 01 01:50:15
  TRACK 59 AUDIO
    TITLE "13:cjc040_0661"
    INDEX 01 01:50:70
  TRACK 60 AUDIO
    TITLE "0:"
    INDEX 01 01:53:51
  TRACK 61 AUDIO
    TITLE "14:cjc040_0662"
    INDEX 01 01:54:33
  TRACK 62 AUDIO
    TITLE "0:"
    INDEX 01 01:58:62
  TRACK 63 AUDIO
    TITLE "12:cjc040_0663"
    INDEX 01 01:59:46
  TRACK 64 AUDIO
    TITLE "0:"
    INDEX 01 02:01:46
  TRACK 65 AUDIO
    TITLE "13:cjc040_0664"
    INDEX 01 02:02:26
  TRACK 66 AUDIO
    TITLE "0:"
    INDEX 01 02:03:63
  TRACK 67 AUDIO
    TITLE "14:cjc040_0665"
    INDEX 01 02:04:41
  TRACK 68 AUDIO
    TITLE "0:"
    INDEX 01 02:10:40
  TRACK 69 AUDIO
    TITLE "12:cjc040_0666"
    INDEX 01 02:11:19
  TRACK 70 AUDIO
    TITLE "0:"
    INDEX 01 02:12:66
  TRACK 71 AUDIO
    TITLE "13:cjc040_0667"
    INDEX 01 02:13:46
  TRACK 72 AUDIO
    TITLE "0:"
    INDEX 01 02:15:43
  TRACK 73 AUDIO
    TITLE "14:cjc040_0668"
    INDEX 01 02:16:21
  TRACK 74 AUDIO
    TITLE "0:"
    INDEX 01 02:22:11
  TRACK 75 AUDIO
    TITLE "12:cjc040_0669"
    INDEX 01 02:22:66
  TRACK 76 AUDIO
    TITLE "0:"
    INDEX 01 02:25:12
  TRACK 77 AUDIO
    TITLE "13:cjc040_0670"
    INDEX 01 02:25:67
  TRACK 78 AUDIO
    TITLE "0:"
    INDEX 01 02:27:56
  TRACK 79 AUDIO
    TITLE "14:cjc040_0671"
    INDEX 01 02:28:34
  TRACK 80 AUDIO
    TITLE "0:"
    INDEX 01 02:32:49
  TRACK 81 AUDIO
    TITLE "12:cjc040_0672"
    INDEX 01 02:33:31
  TRACK 82 AUDIO
    TITLE "0:"
    INDEX 01 02:35:32
  TRACK 83 AUDIO
    TITLE "13:cjc040_0673"
    INDEX 01 02:36:12
  TRACK 84 AUDIO
    TITLE "0:"
    INDEX 01 02:38:40
  TRACK 85 AUDIO
    TITLE "14:cjc040_0674"
    INDEX 01 02:39:20
  TRACK 86 AUDIO
    TITLE "0:"
    INDEX 01 02:43:21
